<?xml version="1.0" standalone="no"?>
<!DOCTYPE svg PUBLIC "-//W3C//DTD SVG 1.1//EN" "http://www.w3.org/Graphics/SVG/1.1/DTD/svg11.dtd">
<svg xmlns="http://www.w3.org/2000/svg" xmlns:xlink="http://www.w3.org/1999/xlink" width="111.75" zoomAndPan="magnify" viewBox="0 0 111.75 162.75" height="162.75" preserveAspectRatio="xMidYMid meet" version="1.0"><defs><g/><clipPath id="adb8b8cff2"><path d="M 8.785156 18.464844 L 111.277344 18.464844 L 111.277344 116.429688 L 8.785156 116.429688 Z M 8.785156 18.464844 " clip-rule="nonzero"/></clipPath><clipPath id="6699347586"><path d="M 71.796875 54.664062 L 97.363281 54.664062 L 97.363281 80.230469 L 71.796875 80.230469 Z M 71.796875 54.664062 " clip-rule="nonzero"/></clipPath><clipPath id="4b79febcf2"><path d="M 84.578125 54.664062 C 77.519531 54.664062 71.796875 60.386719 71.796875 67.445312 C 71.796875 74.507812 77.519531 80.230469 84.578125 80.230469 C 91.640625 80.230469 97.363281 74.507812 97.363281 67.445312 C 97.363281 60.386719 91.640625 54.664062 84.578125 54.664062 Z M 84.578125 54.664062 " clip-rule="nonzero"/></clipPath><clipPath id="111d508dda"><path d="M 71.796875 54.664062 L 97.238281 54.664062 L 97.238281 80.105469 L 71.796875 80.105469 Z M 71.796875 54.664062 " clip-rule="nonzero"/></clipPath><clipPath id="3bed8281d6"><path d="M 84.574219 54.664062 C 77.515625 54.664062 71.796875 60.382812 71.796875 67.441406 C 71.796875 74.5 77.515625 80.222656 84.574219 80.222656 C 91.632812 80.222656 97.355469 74.5 97.355469 67.441406 C 97.355469 60.382812 91.632812 54.664062 84.574219 54.664062 Z M 84.574219 54.664062 " clip-rule="nonzero"/></clipPath></defs><g clip-path="url(#adb8b8cff2)"><path fill="#ff0000" d="M 8.785156 18.464844 L 111.335938 18.464844 L 111.335938 116.429688 L 8.785156 116.429688 Z M 8.785156 18.464844 " fill-opacity="1" fill-rule="nonzero"/></g><g fill="#ffffff" fill-opacity="1"><g transform="translate(25.176879, 100.846448)"><g><path d="M 18.6875 -40.546875 L 18.875 -40.546875 L 26.625 -66.703125 L 42.96875 -66.703125 L 32.890625 -37.09375 L 44.375 0 L 26.0625 0 L 18.875 -29.328125 L 18.6875 -29.328125 L 18.6875 0 L 2.0625 0 L 2.0625 -66.703125 L 18.6875 -66.703125 Z M 18.6875 -40.546875 "/></g></g></g><g clip-path="url(#6699347586)"><g clip-path="url(#4b79febcf2)"><path fill="#ffffff" d="M 71.796875 54.664062 L 97.363281 54.664062 L 97.363281 80.230469 L 71.796875 80.230469 Z M 71.796875 54.664062 " fill-opacity="1" fill-rule="nonzero"/></g></g><g clip-path="url(#111d508dda)"><g clip-path="url(#3bed8281d6)"><path stroke-linecap="butt" transform="matrix(0.748326, 0, 0, 0.748326, 71.79537, 54.662725)" fill="none" stroke-linejoin="miter" d="M 17.076583 0.00178769 C 7.64407 0.00178769 0.00201147 7.643846 0.00201147 17.07636 C 0.00201147 26.508873 7.64407 34.156152 17.076583 34.156152 C 26.509097 34.156152 34.156375 26.508873 34.156375 17.07636 C 34.156375 7.643846 26.509097 0.00178769 17.076583 0.00178769 Z M 17.076583 0.00178769 " stroke="#ffffff" stroke-width="12" stroke-opacity="1" stroke-miterlimit="4"/></g></g></svg>